<svg xmlns="http://www.w3.org/2000/svg" viewBox="0 0 512 512">
  <defs>
    <linearGradient id="background" x1="72" y1="48" x2="444" y2="464" gradientUnits="userSpaceOnUse">
      <stop stop-color="#312E81"/>
      <stop offset="0.52" stop-color="#581C87"/>
      <stop offset="1" stop-color="#111827"/>
    </linearGradient>
    <linearGradient id="star" x1="153" y1="118" x2="354" y2="391" gradientUnits="userSpaceOnUse">
      <stop stop-color="#FDE68A"/>
      <stop offset="0.5" stop-color="#F5D0FE"/>
      <stop offset="1" stop-color="#C4B5FD"/>
    </linearGradient>
  </defs>
  <rect x="24" y="24" width="464" height="464" rx="112" fill="url(#background)"/>
  <path d="M256 92C271 187 325 241 420 256C325 271 271 325 256 420C241 325 187 271 92 256C187 241 241 187 256 92Z" fill="url(#star)"/>
  <path d="M369 92C375 130 398 153 436 159C398 165 375 188 369 226C363 188 340 165 302 159C340 153 363 130 369 92Z" fill="#F9A8D4"/>
  <circle cx="134" cy="131" r="20" fill="#C4B5FD"/>
</svg>
